<?xml version="1.0" encoding="UTF-8"?>
<svg id="burger-ico" xmlns="http://www.w3.org/2000/svg" viewBox="0 0 128 128">
  <defs>
    <style>
      .cls-1 {
        fill: #fff;
      }

      .cls-1, .cls-2 {
        stroke-width: 0px;
      }

      .cls-2 {
        fill: #039d6f;
      }
    </style>
  </defs>
  <circle id="burger-circle" class="cls-2" cx="64" cy="64" r="64"/>
  <path id="burger-line3" class="cls-1" d="m103,29H25c-.6,0-1,.4-1,1v12c0,.6.4,1,1,1h78c.6,0,1-.4,1-1v-12c0-.6-.4-1-1-1Z"/>
  <path id="burger-line2" class="cls-1" d="m103,57H25c-.6,0-1,.4-1,1v12c0,.6.4,1,1,1h78c.6,0,1-.4,1-1v-12c0-.6-.4-1-1-1Z"/>
  <path id="burger-line1" class="cls-1" d="m103,85H25c-.6,0-1,.4-1,1v12c0,.6.4,1,1,1h78c.6,0,1-.4,1-1v-12c0-.6-.4-1-1-1Z"/>
</svg>