<?xml version="1.0" encoding="UTF-8"?>
<svg id="close-menu" xmlns="http://www.w3.org/2000/svg" viewBox="0 0 128 128">
  <defs>
    <style>
      .cls-1 {
        fill: #fff;
        fill-rule: evenodd;
      }

      .cls-1, .cls-2 {
        stroke-width: 0px;
      }

      .cls-2 {
        fill: #039d6f;
      }
    </style>
  </defs>
  <circle id="close-men-circle" class="cls-2" cx="64" cy="64" r="64"/>
  <path id="close-men-x" class="cls-1" d="m22.78,88.25l24.48-24.33-24.48-24.33c-4.6-4.6-4.6-12.16,0-16.76s12.16-4.6,16.76,0l24.48,24.33,24.33-24.33c4.6-4.6,12.16-4.6,16.76,0,4.6,4.6,4.6,12.16,0,16.76l-24.33,24.33,24.33,24.33c4.6,4.6,4.6,12.16,0,16.76-4.6,4.6-12.16,4.6-16.76,0l-24.33-24.33-24.33,24.48c-4.6,4.6-12.16,4.6-16.76,0-4.75-4.75-4.75-12.16-.15-16.91Z"/>
</svg>