<?xml version="1.0" encoding="utf-8"?>
<!-- Svg Vector Icons : http://www.onlinewebfonts.com/icon -->
<!DOCTYPE svg PUBLIC "-//W3C//DTD SVG 1.1//EN" "http://www.w3.org/Graphics/SVG/1.1/DTD/svg11.dtd">
<svg version="1.1" xmlns="http://www.w3.org/2000/svg" xmlns:xlink="http://www.w3.org/1999/xlink" x="0px" y="0px" viewBox="0 0 256 256" enable-background="new 0 0 256 256" xml:space="preserve">
<metadata> Svg Vector Icons : http://www.onlinewebfonts.com/icon </metadata>
<g><g><path fill="#000000" d="M128,4.9c-65.1,0-118,52.8-118,118c0,52.2,33.9,96.5,80.9,112l4.1-9.5c-43.4-13.9-74.7-54.6-74.7-102.6C20.3,63.4,68.5,15.1,128,15.1c59.5,0,107.7,48.2,107.7,107.7c0,48-31.4,88.7-74.7,102.6l4.1,9.5c47-15.5,80.9-59.8,80.9-112C246,57.7,193.1,4.9,128,4.9z"/><path fill="#000000" d="M144.7,187.4l4.1,9.5c32.4-9.1,56.2-38.8,56.2-74.1c0-42.5-34.4-76.9-77-76.9c-42.5,0-76.9,34.4-76.9,77c0,35.3,23.8,65,56.2,74.1l4.1-9.5c-28.7-7.4-50-33.5-50-64.6c0-36.8,29.8-66.7,66.7-66.7c36.8,0,66.7,29.8,66.7,66.7C194.7,153.9,173.4,180,144.7,187.4z"/><path fill="#000000" d="M97.2,251.1h61.5L128,169L97.2,251.1z"/></g></g>
</svg>