<?xml version="1.0" encoding="UTF-8"?>
<svg id="skullcandy_logo" data-name="skullcandy logo" xmlns="http://www.w3.org/2000/svg" viewBox="0 0 688 124.59">
  <defs>
    <style>
      .cls-1 {
        fill: #fff;
        stroke-width: 0px;
      }
    </style>
  </defs>
  <path id="textcandy" class="cls-1" d="m461.1,89.1c-8.6,0-12.7-.4-12.7-9.3,0-10.4,17.1-7.6,25.3-12,0,7.3,1.5,21.3-12.6,21.3h0Zm130.4-1.3c-22.5,0-21.4-42.6-1.9-42.6,13.4,0,17.6,10.2,17.2,21.2-.3,9.5-3.6,21.4-15.3,21.4Zm-161-13.9h-13.3c-1.4,3-1.1,7.4-6,11.2-.9.6-1.7,1.1-2.5,1.4-25.3,10.9-28.9-41.2-6.7-41.2,7.7,0,13.8,3.4,14,11.3l16.8.1c3.4-.1,2.1.1,1.9-2.7h16c0-11.2,9.6-9.9,15.3-9.9,8.1,0,8,5.8,8,9.9,0,7.9-25,4.8-35.9,11.4-4.3,2.2-5.4,4.3-7.6,8.5h0ZM350,8.6v89.8c0,1.5.4,1.9,2,1.9h17.3v-22.5c.9,1.4,1.7,5.8,4.4,9.6,12.2,17.8,36.8,19.2,51.6,7.2,2.6-2.2,3.6-3.3,5.2-5.5,2.9,12.3,20.8,15.8,34.9,10.9,4.9-1.7,5.9-3.6,9.7-5.6,0,2.7.1,6,2.7,6h35.9v-37.9c0-14.2,6.6-16.6,16-16.6,4.4,0,7.5,4.1,8.5,7.5,1.4,4.3.9,33,.8,40.5-.1,8.3-2.7,6.6,19.3,6.6v-18.7l4.2,7.8c3.2,4.8,7.7,8.9,13.2,10.8,12.5,4.5,22.8,1.7,31.2-7.9v8h17.9v-50.6l13.7,36.1c2.2,5.8,9.2,20.1-1.9,22.2-2.5.5-8.1-.5-11.9-.5,0,17.1-2.8,18.2,16.1,16.1,18-2.1,18.4-12.7,26-33.3,1.5-4,20.9-54.9,21.2-58h-19.3l-15.3,44.6c-.2-3-9.4-29.2-11.1-34.2-.7-2.2-1.1-3.3-1.8-5.5-1.9-6.2.6-5-15.8-5V6.6h-18.6v33.3c-4.2-2.8-7.3-9.3-20.7-9.3-21.5,0-25.3,18.7-27.9,20.6,0-19.6-21.7-24.8-36.2-17.5-4.5,2.2-4.9,4.5-8.3,6.8v-8h-18.6l-.6,63.9c0-4.3-.7-6-.7-10.7l.1-36c-.2-26.8-55.4-23.6-60-4-1.1-.6-1.4-1.2-2.7-2.6-9.6-15.3-48-22.2-60,9.8l-1.2-46.4h-17.3c-1.6.1-2,.6-2,2.1h0Z"/>
  <path id="textsku" class="cls-1" d="m130.4,31.2c0,16.3,7.9,22.5,23.8,27.4,13.2,4.1,31.4,4.5,31.4,17.2s-37.9,16.8-37.9-6.6h-20.7c0,21.8,18,33.3,37.3,33.3,17.1,0,31.2-2.7,39.2-18l.7,16h19.3v-22.7c0-1.9,5.2-6.3,6.6-7.3l13.7,22.2c1.4,2.4,3.7,5.3,4.3,7.7h23.3c-2.7-5-27.6-40.3-27.9-43.9,2.8-.7,17.6-16.4,20.6-19.3,0,14.4-.9,30.7.6,44,1.6,14.4,10.3,21.2,24,21.2,9.8,0,15.6-4.8,21.3-11.3v9.3h18V32.5h-19.3v39.9c0,18.3-25.3,21.5-25.3,0v-39.9h-36c-3.4,0-20,20.7-23.9,23.3V6.6h-19.3v55.2c-1.4-1.6-2.1-3.6-4.2-5.8-5.7-6-11.8-8.1-20.1-10.5-6.3-1.8-29-5.8-29-11.6,0-4.5-.6-7.8,4-10.7,4.5-2.7,22.8-4.8,26.6,6.7,2.2,6.6-3.9,5.3,21.4,5.3,0-42.7-72.5-37.9-72.5-4h0Z"/>
  <path id="skullhead" class="cls-1" d="m89.8,54.6c-4.2-11.2-17.3-12.8-17.3-21.4s11.2-25.3-5-30.9c-3.6-1.1-7.6-2-11.9-2.3h-10c-7,.6-13.9,2.4-19.2,5.8-10.3,6.4-16.4,18-19.3,29.9-2,7.8-7.1,11.2-7.1,18.1,0,4.5,1.6,9.2,4.7,7.4,4.2-2.4-2.6-8.7,4.6-8.7,5.8,0,11.9,8.6,14.5,12.8,2.5,4.2,2.9,4.8-.1,8.8-5.1,6.6-9.7,8.1-15.8,1.2-2.9-3.2-1.4-6-3.2-9.5-7.7.6-1.1,14.5,3.1,18.2l5.9,4.8c6.8,5.2,12.4,18.2,13.4,19.2,2.3,2.3,4,2.1,8.1,2.5,5.2.5,3.2,2.6,5.4,5.9,4-.4,4.3-2.1,4.6-6,5.3,1.4-1.7,5.3,7.3,5.3,3,0,3.7-3.7,4-6.7.6-6.6,6.8-5.8,18.1-15.8,12.1-10.4,21.6-21.4,15.2-38.6Zm-51.2,38.5c-3.5-1.2-8.2-.2-12.7.1-.4-1.9-.6-1.4-.6-2.7,0-4.3,3.7-11.6,5.3-14.7l8.2,9.1c2.5,3,6.1,6,7.1,10.1-6,1.5-2.1-.1-7.3-1.9Zm24.6-10.6c-15,0-21.5-17.9-12.5-28.4s28.4-5.6,28.8,11.2c.3,9.1-7,17.2-16.3,17.2Z"/>
  <path id="textlls" class="cls-1" d="m329.3,8.6v89.8c0,1.5.5,1.9,2,1.9h17.3V6.6h-17.3c-1.5,0-2,.5-2,2Z"/>
</svg>