<?xml version="1.0" encoding="UTF-8"?>
<svg id="arrows" xmlns="http://www.w3.org/2000/svg" viewBox="0 0 40.48 40.48">
  <defs>
    <style>
      .cls-1 {
        fill: #fff;
        stroke-width: 0px;
      }
    </style>
  </defs>
  <path id="arrowright" class="cls-1" d="m31.76,21.76l-5.94,5.94c-.29.29-.75.29-1.04,0l-.69-.69c-.29-.29-.29-.75,0-1.04l4.71-4.73-4.71-4.73c-.29-.29-.28-.75,0-1.04l.69-.69c.29-.29.75-.29,1.04,0l5.94,5.94c.29.29.29.75,0,1.04Z"/>
  <path id="arrowleft" class="cls-1" d="m9.43,20.72l5.94-5.94c.29-.29.75-.29,1.04,0l.69.69c.29.29.29.75,0,1.04l-4.71,4.73,4.71,4.73c.29.29.29.75,0,1.04l-.69.69c-.29.29-.75.29-1.04,0l-5.94-5.94c-.29-.29-.29-.75,0-1.04Z"/>
</svg>